Coordinates
version=1
nRows=38
nColumns=24
inDegrees=no

Units are S.I. units (second, meters, Newtons, ...)
If the header above contains a line with 'inDegrees', this indicates whether rotational values are in degrees (yes) or radians (no).

endheader
time	pelvis_tilt	pelvis_list	pelvis_rotation	pelvis_tx	pelvis_ty	pelvis_tz	hip_flexion_r	hip_adduction_r	hip_rotation_r	knee_angle_r	ankle_angle_r	subtalar_angle_r	mtp_angle_r	hip_flexion_l	hip_adduction_l	hip_rotation_l	knee_angle_l	ankle_angle_l	subtalar_angle_l	mtp_angle_l	lumbar_extension	lumbar_bending	lumbar_rotation
30.01	0.382436	0.0436179	-0.0990797	0.713673	1.05762	0.562186	-0.540526	-0.193836	-0.200776	0.564638	0.0622215	-0.0999227	-0.000753333	-0.0122495	-0.0358252	-0.350776	0.322044	-0.0693676	-0.148222	-0.00212676	-0.618748	-0.127	0.0242314
30.02	0.395108	0.0537665	-0.0988341	0.716002	1.05879	0.559703	-0.541467	-0.2088	-0.195759	0.605357	0.0074364	-0.137981	-0.000753333	-0.0269936	-0.0244011	-0.346316	0.348167	-0.0571751	-0.16672	-0.00212676	-0.624271	-0.139096	0.0188742
30.03	0.409331	0.0627197	-0.099625	0.718249	1.06034	0.557218	-0.541054	-0.222392	-0.186493	0.648319	-0.0567457	-0.185932	-0.000753333	-0.0463307	-0.0129691	-0.343275	0.369398	-0.0438203	-0.179074	-0.00212676	-0.631175	-0.149965	0.0141582
30.04	0.419286	0.0700577	-0.102844	0.719882	1.0618	0.554767	-0.529177	-0.23575	-0.173943	0.698937	-0.127628	-0.242277	-0.000753333	-0.063987	-0.00191883	-0.341479	0.383502	-0.0304721	-0.187631	-0.00212676	-0.635837	-0.159355	0.0109025
30.05	0.422003	0.0760634	-0.108732	0.720783	1.06285	0.552354	-0.501786	-0.249802	-0.159624	0.758655	-0.196999	-0.298142	-0.000753333	-0.0766381	0.00927231	-0.340184	0.389861	-0.0187426	-0.196862	-0.00212676	-0.635705	-0.167513	0.00932128
30.06	0.42202	0.0808774	-0.116723	0.721289	1.06378	0.550075	-0.4675	-0.262775	-0.142381	0.820872	-0.260788	-0.354478	-0.000753333	-0.0890621	0.0209873	-0.339165	0.389676	-0.00919734	-0.208249	-0.00212676	-0.633619	-0.174786	0.00926022
30.07	0.422809	0.0842269	-0.125987	0.721572	1.06485	0.548013	-0.433377	-0.272686	-0.1218	0.879415	-0.313653	-0.40352	-0.000753333	-0.104216	0.0323999	-0.338619	0.385438	-0.000876211	-0.219826	-0.00212676	-0.632256	-0.180964	0.0102783
30.08	0.423498	0.0859519	-0.135473	0.721545	1.06605	0.54617	-0.399364	-0.279042	-0.099731	0.93286	-0.346842	-0.426545	-0.000753333	-0.119957	0.0422495	-0.33873	0.379736	0.00700689	-0.229549	-0.00212676	-0.631329	-0.18562	0.0115958
30.09	0.42349	0.085926	-0.144434	0.721165	1.06737	0.544556	-0.364825	-0.281316	-0.0771335	0.981587	-0.3567	-0.427691	-0.000753333	-0.135117	0.0496889	-0.340229	0.373779	0.0145088	-0.236753	-0.00212676	-0.630479	-0.188597	0.0129953
30.1	0.423353	0.0839537	-0.151978	0.720469	1.06889	0.543129	-0.330655	-0.278952	-0.0552744	1.02578	-0.344295	-0.425235	-0.000753333	-0.150485	0.0543532	-0.342901	0.367435	0.0220923	-0.240748	-0.00212676	-0.630186	-0.18951	0.0141653
30.11	0.423511	0.079779	-0.156669	0.719526	1.07067	0.541762	-0.298384	-0.271761	-0.036797	1.06428	-0.316791	-0.425971	-0.000753333	-0.166677	0.0558458	-0.344977	0.360718	0.0304891	-0.240687	-0.00212676	-0.630984	-0.187385	0.0141192
30.12	0.423886	0.0732444	-0.158027	0.718418	1.07271	0.540382	-0.268725	-0.259914	-0.0226845	1.09565	-0.287727	-0.428499	-0.000753333	-0.183696	0.0539258	-0.345563	0.353805	0.0397317	-0.236867	-0.00212676	-0.632803	-0.181667	0.0126777
30.13	0.42411	0.0648307	-0.15686	0.717219	1.07494	0.538976	-0.241061	-0.244678	-0.0121817	1.12007	-0.263879	-0.422834	-0.000753333	-0.201323	0.0494825	-0.344619	0.346155	0.0489936	-0.231075	-0.00212676	-0.63501	-0.17294	0.0102748
30.14	0.424053	0.0556629	-0.154173	0.715984	1.07728	0.537531	-0.214875	-0.228278	-0.0049907	1.13855	-0.241528	-0.399051	-0.000753333	-0.219402	0.0443022	-0.341595	0.337035	0.0571638	-0.225714	-0.00212676	-0.637171	-0.162508	0.00684564
30.15	0.42386	0.0468047	-0.150414	0.714738	1.07964	0.536048	-0.190359	-0.212446	-0.00142469	1.15145	-0.218788	-0.366444	-0.000753333	-0.237695	0.0396267	-0.336232	0.326544	0.0638176	-0.222096	-0.00212676	-0.639278	-0.151562	0.00224183
30.16	0.423448	0.0387134	-0.145317	0.713506	1.08197	0.534533	-0.167653	-0.197614	-0.00172302	1.15862	-0.198313	-0.340159	-0.000753333	-0.255653	0.0354651	-0.329164	0.315544	0.0693867	-0.219635	-0.00212676	-0.641154	-0.140555	-0.00345781
30.17	0.422774	0.0311083	-0.139185	0.712284	1.08422	0.533047	-0.146546	-0.183399	-0.00514276	1.16023	-0.180049	-0.32294	-0.000753333	-0.273039	0.0311373	-0.322319	0.30485	0.0746788	-0.216487	-0.00212676	-0.642689	-0.129511	-0.00987057
30.18	0.422502	0.0235198	-0.133113	0.711015	1.08637	0.53166	-0.127187	-0.169631	-0.0104215	1.1568	-0.161685	-0.312521	-0.000753333	-0.29082	0.0263964	-0.317391	0.294204	0.0803299	-0.2113	-0.00212676	-0.644675	-0.11853	-0.0164704
30.19	0.4232	0.015993	-0.127281	0.709696	1.08844	0.530321	-0.109944	-0.156819	-0.0175585	1.14878	-0.143365	-0.308093	-0.000753333	-0.310195	0.0218265	-0.313248	0.282185	0.0861141	-0.204929	-0.00212676	-0.647804	-0.107604	-0.0230022
30.2	0.424469	0.00883301	-0.120974	0.708401	1.09034	0.528947	-0.0946572	-0.145421	-0.0272149	1.13643	-0.126792	-0.308161	-0.000753333	-0.330748	0.0176828	-0.308573	0.268712	0.0918217	-0.198347	-0.00212676	-0.651505	-0.0966083	-0.0294276
30.21	0.425795	0.00236086	-0.11391	0.707165	1.092	0.527556	-0.0809435	-0.135594	-0.0391001	1.11997	-0.112161	-0.310149	-0.000753333	-0.351102	0.0136774	-0.304359	0.255719	0.097998	-0.190468	-0.00212676	-0.655002	-0.0858063	-0.0360724
30.22	0.427113	-0.00300601	-0.106176	0.70597	1.0934	0.526164	-0.0685504	-0.127737	-0.0526914	1.09967	-0.098744	-0.31156	-0.000753333	-0.370807	0.0100478	-0.300765	0.243831	0.104614	-0.181107	-0.00212676	-0.658215	-0.0756714	-0.0434744
30.23	0.428439	-0.00735344	-0.0977202	0.704773	1.09451	0.524744	-0.0573801	-0.121863	-0.0681042	1.07558	-0.0866358	-0.310873	-0.000753333	-0.390061	0.00688483	-0.296254	0.23234	0.11124	-0.17227	-0.00212676	-0.661428	-0.0660418	-0.0515785
30.24	0.429776	-0.0112828	-0.0885302	0.703538	1.09537	0.523314	-0.0475612	-0.11709	-0.0852098	1.04765	-0.0763476	-0.307962	-0.000753333	-0.408631	0.00342889	-0.290039	0.221839	0.118231	-0.165045	-0.00212676	-0.66484	-0.0564138	-0.0599177
30.25	0.430922	-0.0150019	-0.0788414	0.702276	1.09594	0.521939	-0.0389687	-0.112748	-0.103242	1.01602	-0.0676816	-0.303172	-0.000753333	-0.425991	-0.000758757	-0.282606	0.213236	0.126008	-0.15862	-0.00212676	-0.668144	-0.0468219	-0.0683045
30.26	0.431483	-0.018298	-0.069203	0.701026	1.09622	0.520654	-0.0310371	-0.108884	-0.121263	0.980952	-0.059431	-0.295818	-0.000753333	-0.441936	-0.00525688	-0.27546	0.206109	0.134318	-0.152016	-0.00212676	-0.670744	-0.0376948	-0.076459
30.27	0.431307	-0.0210376	-0.0602987	0.69979	1.09618	0.51948	-0.0232785	-0.10554	-0.138234	0.942641	-0.0504476	-0.285026	-0.000753333	-0.456704	-0.00943969	-0.270132	0.199577	0.142633	-0.145154	-0.00212676	-0.672491	-0.0294158	-0.083877
30.28	0.430645	-0.0231658	-0.0523621	0.698548	1.09588	0.518434	-0.0158486	-0.102617	-0.153628	0.90114	-0.0408256	-0.271044	-0.000753333	-0.470791	-0.0129864	-0.266688	0.193311	0.150745	-0.138129	-0.00212676	-0.673797	-0.0221611	-0.0905476
30.29	0.430022	-0.0247931	-0.0454188	0.697325	1.09536	0.517521	-0.00962539	-0.100042	-0.167661	0.856325	-0.0315617	-0.254508	-0.000753333	-0.484797	-0.0159263	-0.264785	0.187302	0.158962	-0.130113	-0.00212676	-0.675136	-0.0158433	-0.0965545
30.3	0.429441	-0.0261744	-0.0398658	0.696174	1.09465	0.516762	-0.00487262	-0.0975742	-0.180239	0.808113	-0.0238954	-0.236285	-0.000753333	-0.498755	-0.018292	-0.264427	0.181525	0.167395	-0.120966	-0.00212676	-0.676318	-0.0103663	-0.101399
30.31	0.428169	-0.0273108	-0.0357066	0.695158	1.0937	0.516156	-0.000790444	-0.0950379	-0.191279	0.756506	-0.0183435	-0.21713	-0.000753333	-0.512623	-0.0199657	-0.264381	0.176052	0.175292	-0.113036	-0.00212676	-0.6767	-0.00567501	-0.10498
30.32	0.426698	-0.0282428	-0.0326758	0.694255	1.09257	0.515679	0.0021405	-0.0923014	-0.201039	0.701817	-0.0143585	-0.197477	-0.000753333	-0.526445	-0.0207745	-0.263281	0.170142	0.181889	-0.10841	-0.00212676	-0.676605	-0.00157836	-0.107782
30.33	0.425071	-0.0290895	-0.0309283	0.693262	1.09129	0.515344	0.00403455	-0.0890533	-0.208738	0.644687	-0.0117337	-0.178624	-0.000753333	-0.537246	-0.0208202	-0.262227	0.164149	0.187552	-0.10628	-0.00212676	-0.67604	0.00195345	-0.109776
30.34	0.419309	-0.0292288	-0.029449	0.692154	1.08961	0.515146	0.00917817	-0.0854692	-0.213839	0.585115	-0.00989836	-0.15997	-0.000753333	-0.54145	-0.0210461	-0.262422	0.162652	0.193228	-0.104902	-0.00212676	-0.672571	0.0048379	-0.1111
30.35	0.4082	-0.0282642	-0.0266703	0.691189	1.08741	0.51502	0.0184239	-0.0820752	-0.217777	0.523146	-0.00684288	-0.138107	-0.000753333	-0.541252	-0.0222204	-0.262499	0.167453	0.199261	-0.103775	-0.00212676	-0.665486	0.0074231	-0.112579
30.36	0.397249	-0.0270387	-0.0230189	0.690431	1.08511	0.514949	0.0255922	-0.078756	-0.221583	0.460207	-0.00135109	-0.112532	-0.000753333	-0.540886	-0.0238672	-0.261427	0.173699	0.20552	-0.103183	-0.00212676	-0.658154	0.0102006	-0.114616
30.37	0.38917	-0.0261593	-0.0192745	0.689774	1.08294	0.514961	0.028062	-0.0751148	-0.224702	0.397828	0.00585287	-0.0854519	-0.000753333	-0.541006	-0.0257657	-0.260576	0.179673	0.212042	-0.103127	-0.00212676	-0.652548	0.0133799	-0.117304
30.38	0.382148	-0.0255372	-0.0147893	0.689235	1.08076	0.515045	0.0281801	-0.0710359	-0.226635	0.337185	0.0131497	-0.0580206	-0.000753333	-0.54098	-0.0286805	-0.261107	0.187986	0.218894	-0.103277	-0.00212676	-0.647931	0.0172273	-0.120824
